<svg width="1440" height="2176" viewBox="0 0 1440 2176" fill="none" xmlns="http://www.w3.org/2000/svg">
<path d="M1803.89 1053.57C2053.84 1197.88 2145.33 1507.17 2008.39 1744.37C1871.45 1981.56 1557.84 2056.97 1307.89 1912.66C1057.94 1768.36 966.452 1459.06 1103.39 1221.87C1240.34 984.674 1553.94 909.258 1803.89 1053.57Z" stroke="#172144" stroke-opacity="0.5" stroke-width="2"/>
<path d="M1732.89 1012.58C1982.84 1156.89 2074.33 1466.19 1937.38 1703.38C1800.44 1940.57 1486.84 2015.99 1236.89 1871.68C986.935 1727.37 895.445 1418.07 1032.39 1180.88C1169.33 943.687 1482.93 868.27 1732.89 1012.58Z" stroke="#172144" stroke-opacity="0.5" stroke-width="2"/>
<path d="M1661.88 971.592C1911.83 1115.9 2003.32 1425.2 1866.38 1662.39C1729.43 1899.58 1415.83 1975 1165.88 1830.69C915.927 1686.38 824.437 1377.08 961.38 1139.89C1098.32 902.699 1411.93 827.282 1661.88 971.592Z" stroke="#172144" stroke-opacity="0.5" stroke-width="2"/>
<path d="M1590.87 930.604C1840.82 1074.91 1932.31 1384.21 1795.37 1621.4C1658.43 1858.59 1344.82 1934.01 1094.87 1789.7C844.92 1645.39 753.43 1336.09 890.373 1098.9C1027.32 861.711 1340.92 786.295 1590.87 930.604Z" stroke="#172144" stroke-opacity="0.5" stroke-width="2"/>
<path d="M1519.86 889.616C1769.82 1033.93 1861.31 1343.22 1724.36 1580.41C1587.42 1817.61 1273.82 1893.02 1023.86 1748.71C773.913 1604.4 682.424 1295.11 819.366 1057.91C956.308 820.723 1269.91 745.307 1519.86 889.616Z" stroke="#172144" stroke-opacity="0.5" stroke-width="2"/>
<path d="M81.8643 262.616C331.815 406.925 423.305 716.223 286.363 953.414C149.42 1190.61 -164.185 1266.02 -414.136 1121.71C-664.087 977.404 -755.576 668.106 -618.634 430.914C-481.692 193.723 -168.087 118.307 81.8643 262.616Z" stroke="#172144" stroke-opacity="0.5" stroke-width="2"/>
<path d="M152.871 303.604C402.822 447.913 494.312 757.211 357.369 994.402C220.427 1231.59 -93.178 1307.01 -343.129 1162.7C-593.08 1018.39 -684.57 709.094 -547.627 471.902C-410.685 234.711 -97.0797 159.294 152.871 303.604Z" stroke="#172144" stroke-opacity="0.5" stroke-width="2"/>
<path d="M223.878 344.591C473.829 488.901 565.319 798.199 428.376 1035.39C291.434 1272.58 -22.1712 1348 -272.122 1203.69C-522.073 1059.38 -613.563 750.081 -476.62 512.89C-339.678 275.699 -26.0729 200.282 223.878 344.591Z" stroke="#172144" stroke-opacity="0.5" stroke-width="2"/>
<path d="M294.886 385.579C544.837 529.888 636.326 839.187 499.384 1076.38C362.442 1313.57 48.8366 1388.99 -201.114 1244.68C-451.065 1100.37 -542.555 791.069 -405.613 553.878C-268.67 316.687 44.9349 241.27 294.886 385.579Z" stroke="#172144" stroke-opacity="0.5" stroke-width="2"/>
<path d="M365.893 426.567C615.843 570.876 707.333 880.174 570.391 1117.37C433.448 1354.56 119.843 1429.97 -130.107 1285.66C-380.058 1141.36 -471.548 832.057 -334.606 594.866C-197.663 357.674 115.942 282.258 365.893 426.567Z" stroke="#172144" stroke-opacity="0.5" stroke-width="2"/>
</svg>
